<?xml version="1.0" standalone="no"?>
<!DOCTYPE svg PUBLIC "-//W3C//DTD SVG 20010904//EN"
 "http://www.w3.org/TR/2001/REC-SVG-20010904/DTD/svg10.dtd">
<svg version="1.0" xmlns="http://www.w3.org/2000/svg"
 width="700.000000pt" height="700.000000pt" viewBox="0 0 700.000000 700.000000"
 preserveAspectRatio="xMidYMid meet">
<metadata>
Created by potrace 1.14, written by Peter Selinger 2001-2017
</metadata>
<g transform="translate(0.000000,700.000000) scale(0.100000,-0.100000)"
fill="#000000" stroke="none">
<path d="M3265 5619 c-182 -21 -294 -52 -295 -80 0 -3 53 5 118 17 248 49 580
49 824 0 410 -83 776 -281 1073 -581 241 -243 415 -532 517 -860 19 -60 38
-105 46 -105 20 0 14 39 -29 165 -265 790 -974 1359 -1799 1445 -111 11 -355
11 -455 -1z"/>
<path d="M2681 4996 c-9 -11 -20 -12 -44 -5 -61 17 -180 10 -272 -16 -118 -35
-161 -53 -149 -65 14 -14 291 -42 339 -34 22 3 55 12 73 20 29 12 32 11 32 -6
0 -12 -8 -20 -22 -22 -19 -2 -25 -12 -32 -50 -5 -31 -13 -48 -22 -48 -26 0
-38 -44 -20 -77 18 -36 53 -43 220 -43 106 0 114 -2 157 -28 24 -16 67 -49 94
-74 93 -83 73 -78 332 -78 141 0 234 -4 238 -10 13 -21 -58 -50 -124 -50 -57
0 -68 3 -93 27 -15 14 -31 24 -34 20 -10 -10 23 -55 46 -62 12 -4 20 -15 20
-29 0 -37 24 -49 81 -44 52 5 69 18 69 51 0 10 14 30 30 44 17 13 30 31 30 39
0 11 20 14 99 14 54 0 112 3 129 6 16 3 65 36 108 72 125 104 120 102 270 102
150 0 187 9 204 50 13 31 0 70 -24 70 -7 0 -17 20 -22 48 -7 38 -13 48 -31 50
-15 2 -23 10 -23 22 0 18 2 18 38 3 26 -12 64 -16 132 -16 92 1 270 19 279 29
11 10 -22 28 -105 56 -99 34 -251 48 -316 30 -29 -8 -40 -7 -49 4 -22 27 -46
16 -61 -28 -17 -53 -47 -62 -173 -55 -77 5 -234 41 -223 52 2 2 59 9 128 16
110 10 132 10 182 -5 71 -20 84 -21 69 -2 -16 19 -89 36 -156 36 -58 0 -232
-16 -274 -26 -38 -8 -9 -28 84 -58 137 -45 235 -54 330 -30 18 4 25 2 25 -9 0
-10 -8 -13 -25 -9 -36 6 -55 -14 -55 -59 l0 -39 -62 0 c-46 0 -78 -7 -116 -25
-77 -36 -98 -33 -153 21 -39 38 -55 47 -107 57 -46 8 -62 16 -62 28 0 9 -10
24 -21 35 -19 17 -36 19 -146 17 -133 -3 -165 -12 -178 -53 -3 -11 -14 -20
-23 -20 -44 0 -99 -26 -142 -66 -55 -52 -76 -54 -152 -19 -36 17 -70 25 -109
25 -60 0 -69 7 -69 55 0 30 -24 49 -55 43 -17 -4 -25 -1 -25 9 0 11 8 12 38 6
82 -18 192 -6 310 32 61 20 112 40 112 45 0 11 -32 17 -145 30 -162 18 -278 8
-306 -26 -15 -19 -2 -18 69 2 50 15 72 15 182 5 69 -7 126 -14 128 -16 11 -11
-146 -47 -223 -52 -125 -7 -157 2 -171 53 -12 42 -41 57 -63 30z m41 -71 c2
-41 0 -50 -14 -53 -15 -3 -18 4 -18 41 0 90 26 100 32 12z m1588 10 c4 -57 2
-65 -15 -65 -11 0 -15 13 -15 53 0 81 26 91 30 12z m-1667 30 c31 -13 18 -33
-35 -51 -43 -14 -73 -16 -169 -11 -64 4 -127 11 -140 15 -23 9 -17 11 156 56
26 6 165 0 188 -9z m2003 -16 c64 -19 73 -24 54 -31 -40 -15 -252 -21 -296 -9
-41 11 -73 36 -61 47 29 30 193 26 303 -7z m-1015 -69 c10 -6 19 -17 19 -25 0
-12 -14 -15 -59 -15 -33 0 -62 -4 -65 -9 -6 -9 96 -21 177 -21 58 0 78 -9 139
-66 26 -24 56 -44 68 -44 11 0 44 12 73 26 50 26 56 27 223 25 93 -1 182 -5
197 -9 24 -6 25 -9 14 -32 -12 -25 -15 -25 -162 -30 -173 -6 -183 -10 -311
-119 l-71 -61 -254 -6 c-140 -4 -307 -4 -372 1 l-119 7 -71 60 c-130 108 -140
112 -312 118 -147 5 -150 5 -162 30 -11 23 -10 26 15 32 15 4 104 8 199 8 165
1 173 0 222 -24 28 -14 60 -26 71 -26 12 0 42 20 68 44 61 56 81 66 135 66 24
0 80 3 123 7 61 5 72 9 49 14 -16 4 -49 7 -72 8 -48 1 -60 25 -20 41 31 12
234 12 258 0z m-821 -64 c0 -33 -1 -33 -52 -40 -29 -3 -70 -6 -90 -6 -36 0
-38 1 -38 33 0 19 3 37 7 40 3 4 44 7 90 7 l83 0 0 -34z m1546 26 c6 -4 13
-22 16 -39 4 -33 4 -33 -36 -33 -23 0 -65 3 -93 6 -49 6 -53 9 -53 34 0 15 3
30 7 33 9 9 145 9 159 -1z m-808 -469 c-4 -24 -108 -33 -108 -9 0 19 15 24 68
25 36 1 43 -2 40 -16z"/>
<path d="M3274 4766 c-66 -31 -94 -67 -94 -121 0 -83 82 -134 218 -135 48 0
82 4 82 10 0 6 -33 10 -80 10 -90 0 -142 19 -179 66 -46 59 -8 127 90 159 45
15 75 17 228 10 184 -7 216 -15 245 -57 9 -12 16 -40 16 -62 0 -31 -7 -45 -34
-71 -37 -34 -88 -45 -217 -45 -33 0 -59 -4 -59 -10 0 -13 184 -13 232 0 20 6
50 26 67 46 26 29 31 43 31 84 0 40 -5 55 -30 83 -43 49 -83 57 -286 57 -167
0 -182 -2 -230 -24z"/>
<path d="M3432 4744 c-72 -30 -74 -134 -3 -181 42 -28 86 -29 128 -3 66 40 80
122 28 170 -30 28 -104 35 -153 14z m100 -14 c83 -23 78 -132 -6 -160 -62 -20
-126 22 -126 82 0 30 26 67 54 78 28 12 35 12 78 0z"/>
<path d="M3452 4688 c-7 -7 -12 -24 -12 -38 0 -34 17 -50 55 -50 38 0 55 16
55 50 0 34 -17 50 -55 50 -17 0 -36 -5 -43 -12z m73 -32 c0 -30 -31 -44 -51
-24 -15 14 -15 20 -4 33 18 21 55 15 55 -9z"/>
<path d="M2946 4475 c-31 -41 -61 -87 -66 -101 -14 -36 -12 -133 4 -242 14
-96 26 -122 55 -122 35 0 41 21 41 139 1 72 5 124 13 138 14 25 80 76 160 124
56 33 70 49 44 49 -23 0 -193 -116 -215 -147 -15 -21 -22 -48 -24 -94 -3 -61
-4 -64 -28 -64 -24 0 -25 4 -34 78 -12 99 -2 133 69 227 30 40 55 77 55 82 0
22 -23 1 -74 -67z m14 -389 c0 -72 -32 -75 -45 -4 -7 36 -3 41 38 47 4 0 7
-19 7 -43z"/>
<path d="M3980 4541 c0 -4 22 -37 48 -72 84 -111 91 -136 75 -267 -6 -50 -7
-53 -32 -50 -25 3 -26 6 -31 74 -4 53 -10 78 -25 95 -26 29 -193 139 -211 139
-28 0 -12 -16 54 -55 37 -22 88 -61 115 -86 l47 -45 0 -120 c0 -123 6 -144 41
-144 30 0 41 29 60 158 24 162 19 189 -62 300 -55 74 -79 97 -79 73z m107
-458 c-11 -68 -47 -70 -47 -2 0 35 2 39 26 39 25 0 26 -2 21 -37z"/>
<path d="M1220 3620 c0 -186 7 -214 71 -259 37 -27 50 -31 107 -31 75 0 125
23 159 73 19 29 23 51 29 205 l7 172 -47 0 -46 0 0 -149 c0 -145 -1 -150 -25
-179 -14 -17 -39 -33 -55 -37 -33 -7 -84 15 -100 44 -5 11 -10 86 -10 170 l0
151 -45 0 -45 0 0 -160z"/>
<path d="M2190 3555 l0 -225 45 0 45 0 0 70 0 70 47 0 c60 0 123 31 148 72 27
46 27 137 -1 175 -36 49 -78 63 -186 63 l-98 0 0 -225z m186 137 c15 -10 34
-47 34 -67 0 -31 -46 -65 -90 -65 l-40 0 0 70 0 70 43 0 c23 0 47 -4 53 -8z"/>
<path d="M3070 3555 l0 -225 155 0 155 0 0 40 0 40 -110 0 -110 0 0 185 0 185
-45 0 -45 0 0 -225z"/>
<path d="M3960 3555 l0 -225 45 0 45 0 0 225 0 225 -45 0 -45 0 0 -225z"/>
<path d="M4660 3555 l0 -225 45 0 45 0 0 90 0 90 85 0 85 0 0 40 0 40 -85 0
-85 0 0 55 0 55 100 0 100 0 0 40 0 40 -145 0 -145 0 0 -225z"/>
<path d="M5500 3740 l0 -40 55 0 55 0 0 -185 0 -185 45 0 45 0 0 185 0 185 55
0 55 0 0 40 0 40 -155 0 -155 0 0 -40z"/>
<path d="M1443 2974 c-3 -9 13 -73 36 -143 196 -593 654 -1078 1238 -1310 373
-148 790 -186 1191 -110 86 16 115 26 123 40 12 24 19 24 -136 -8 -122 -25
-147 -27 -390 -28 -248 0 -267 1 -400 29 -331 67 -628 202 -895 406 -88 68
-271 248 -345 340 -153 190 -278 423 -352 652 -27 81 -52 148 -56 148 -4 0
-10 -7 -14 -16z"/>
<path d="M2027 2913 c-4 -3 -7 -46 -7 -95 0 -81 2 -88 20 -88 16 0 20 7 20 30
0 24 5 31 28 36 40 10 52 23 52 59 0 18 -6 37 -12 42 -16 13 -93 25 -101 16z
m81 -52 c4 -23 -11 -41 -35 -41 -8 0 -13 14 -13 36 0 31 3 35 23 32 14 -2 23
-11 25 -27z"/>
<path d="M2290 2825 c0 -78 3 -95 15 -95 10 0 15 10 15 30 0 19 5 30 14 30 8
0 24 -13 36 -30 12 -16 28 -30 37 -30 13 0 12 5 -4 33 -17 29 -18 35 -4 58 23
40 8 76 -37 88 -73 21 -72 22 -72 -84z m83 43 c13 -20 -6 -48 -34 -48 -15 0
-19 7 -19 36 0 31 3 35 21 32 12 -2 27 -10 32 -20z"/>
<path d="M2620 2906 c-74 -23 -86 -127 -19 -161 68 -36 139 1 139 72 0 72 -53
111 -120 89z m68 -32 c15 -10 22 -25 22 -49 0 -41 -22 -65 -60 -65 -37 0 -60
24 -60 61 0 32 31 69 58 69 10 0 28 -7 40 -16z"/>
<path d="M2897 2914 c-4 -4 -7 -47 -7 -96 l0 -88 49 0 c60 0 98 26 107 75 7
38 -11 77 -43 93 -26 14 -97 24 -106 16z m99 -50 c20 -19 24 -31 19 -52 -9
-36 -24 -50 -60 -54 -30 -3 -30 -2 -33 51 -2 29 -1 60 2 67 8 22 45 16 72 -12z"/>
<path d="M3193 2905 c-10 -26 8 -139 24 -157 22 -24 78 -23 103 2 16 16 20 33
20 95 0 59 -3 75 -15 75 -11 0 -15 -17 -17 -71 -2 -59 -7 -74 -23 -85 -18 -12
-24 -11 -43 2 -19 13 -22 24 -22 85 0 65 -12 90 -27 54z"/>
<path d="M3770 2905 c0 -8 9 -15 20 -15 18 0 20 -7 20 -80 0 -64 3 -80 15 -80
12 0 15 16 15 80 0 79 0 80 25 80 16 0 25 6 25 15 0 12 -13 15 -60 15 -47 0
-60 -3 -60 -15z"/>
<path d="M4040 2825 c0 -78 3 -95 15 -95 12 0 15 17 15 95 0 78 -3 95 -15 95
-12 0 -15 -17 -15 -95z"/>
<path d="M4283 2908 c-41 -11 -63 -42 -63 -89 0 -29 7 -43 31 -63 51 -43 115
-32 145 25 37 72 -31 149 -113 127z m65 -34 c16 -11 22 -25 22 -53 0 -45 -14
-61 -54 -61 -60 0 -88 68 -46 110 24 24 48 25 78 4z"/>
<path d="M4690 2860 c0 -33 -4 -60 -8 -60 -4 0 -32 25 -62 55 -30 30 -58 55
-62 55 -4 0 -8 -40 -8 -90 0 -85 1 -90 21 -90 20 0 21 4 16 50 -3 27 -2 52 2
54 4 3 19 -6 32 -20 13 -14 41 -39 62 -56 l37 -30 0 96 c0 79 -3 96 -15 96
-12 0 -15 -13 -15 -60z"/>
<path d="M3505 2878 c-22 -26 -26 -39 -21 -67 8 -52 47 -83 100 -79 28 2 41 8
41 18 0 8 -7 13 -15 11 -37 -8 -65 -2 -82 19 -25 31 -23 56 7 86 20 20 32 24
55 19 23 -5 30 -3 30 9 0 12 -11 16 -44 16 -37 0 -48 -5 -71 -32z"/>
<path d="M4880 2890 c-16 -30 -5 -53 35 -74 50 -27 48 -56 -5 -56 -40 0 -53
-13 -24 -24 36 -14 74 -6 89 18 20 30 9 57 -35 83 -17 9 -30 26 -30 36 0 17 5
19 35 14 26 -4 35 -2 35 9 0 10 -12 14 -45 14 -34 0 -47 -5 -55 -20z"/>
<path d="M3360 2386 l0 -66 34 0 c39 0 62 22 50 47 -4 10 -8 32 -8 48 -1 27
-4 30 -38 33 l-38 3 0 -65z m58 27 c2 -8 -5 -13 -17 -13 -12 0 -21 6 -21 16 0
18 31 15 38 -3z m7 -58 c0 -5 -10 -11 -22 -13 -16 -2 -23 2 -23 13 0 11 7 15
23 13 12 -2 22 -7 22 -13z"/>
<path d="M3556 2428 c-22 -31 -20 -64 4 -88 21 -21 74 -27 85 -10 4 6 -6 10
-24 10 -31 0 -61 22 -61 45 0 21 29 45 56 45 13 0 24 5 24 10 0 6 -15 10 -34
10 -25 0 -39 -7 -50 -22z"/>
</g>
</svg>
