<?xml version="1.0" standalone="no"?>
<!DOCTYPE svg PUBLIC "-//W3C//DTD SVG 20010904//EN"
 "http://www.w3.org/TR/2001/REC-SVG-20010904/DTD/svg10.dtd">
<svg version="1.0" xmlns="http://www.w3.org/2000/svg"
 width="1563.000000pt" height="1563.000000pt" viewBox="0 0 1563.000000 1563.000000"
 preserveAspectRatio="xMidYMid meet">

<g transform="translate(0.000000,1563.000000) scale(0.100000,-0.100000)"
fill="#000000" stroke="none">
<path d="M7570 12569 c-260 -13 -523 -49 -790 -107 l-124 -27 -15 -38 c-7 -20
-12 -40 -9 -42 2 -3 64 9 136 25 365 84 639 114 1047 114 333 0 486 -12 768
-59 1503 -253 2783 -1212 3443 -2580 129 -269 233 -543 299 -791 14 -54 28
-104 30 -111 3 -9 12 -10 35 -2 38 14 38 30 4 152 -129 460 -336 915 -601
1321 -282 432 -681 861 -1091 1174 -682 520 -1494 848 -2347 947 -133 15 -490
36 -580 33 -27 0 -120 -5 -205 -9z"/>
<path d="M5992 11167 c-12 -13 -22 -29 -22 -35 0 -8 -7 -9 -27 -1 -64 24 -172
39 -281 39 -180 0 -347 -35 -592 -125 -227 -84 -216 -93 165 -134 160 -17 324
-31 367 -31 97 0 215 22 284 54 l54 25 0 -29 c0 -15 3 -35 6 -44 5 -12 -5 -16
-53 -18 l-58 -3 -7 -40 c-4 -22 -10 -70 -13 -107 l-6 -67 -42 -3 c-37 -3 -42
-6 -42 -28 0 -14 -8 -31 -17 -38 -16 -11 -16 -16 -1 -65 8 -28 25 -63 36 -76
45 -49 67 -52 375 -50 178 0 303 -3 328 -10 82 -22 210 -112 366 -258 54 -50
120 -102 146 -115 l47 -23 528 -3 c442 -2 527 -5 527 -17 0 -26 -50 -72 -102
-96 -47 -20 -69 -23 -183 -23 -117 -1 -134 2 -174 22 -31 17 -48 35 -60 63
-17 40 -46 53 -57 24 -16 -39 51 -121 118 -145 32 -12 33 -14 30 -61 -3 -41 0
-52 22 -74 24 -23 31 -25 126 -25 125 0 164 14 187 67 12 29 13 44 5 66 -9 25
-8 29 11 37 62 25 127 95 127 136 l0 23 258 3 c307 4 296 0 448 139 119 108
238 200 308 237 l51 27 310 3 c171 1 320 4 332 7 42 10 92 64 107 116 16 54
13 79 -11 79 -13 0 -13 3 -3 15 19 23 -5 45 -50 45 l-38 0 -7 88 c-9 124 -13
132 -75 132 l-50 0 0 44 0 45 54 -24 c77 -34 191 -55 298 -55 81 0 585 51 646
65 38 9 27 41 -20 60 -116 46 -268 97 -384 127 -121 31 -139 33 -299 33 -133
0 -186 -4 -242 -19 l-73 -18 -26 32 c-22 26 -33 31 -62 28 -50 -4 -73 -39 -79
-121 l-6 -64 -91 -24 c-121 -31 -296 -31 -442 0 -109 22 -359 99 -351 107 9
10 441 54 522 54 97 0 197 -21 272 -55 69 -31 85 -32 81 -3 -8 57 -180 108
-362 108 -111 0 -636 -53 -657 -66 -5 -3 -9 -13 -9 -24 0 -28 295 -133 497
-175 160 -34 381 -29 494 10 l39 14 0 -32 0 -33 -64 4 c-59 4 -67 2 -90 -21
-24 -24 -26 -33 -26 -113 l0 -87 -92 7 c-140 9 -205 -4 -333 -69 -160 -80
-183 -77 -290 42 -37 41 -84 85 -105 98 -55 35 -135 55 -217 55 l-73 0 0 38
c0 50 -29 94 -76 118 -50 24 -152 28 -401 16 -160 -8 -197 -12 -225 -29 -41
-24 -78 -77 -78 -113 0 -27 0 -27 -89 -32 -130 -8 -183 -35 -297 -154 -87 -90
-92 -94 -133 -94 -33 0 -70 14 -152 55 -124 63 -196 78 -335 68 l-81 -6 -6 89
c-6 80 -10 91 -34 113 -23 20 -34 23 -90 19 l-63 -4 0 33 0 32 39 -14 c113
-39 330 -44 496 -10 159 32 489 145 499 170 2 7 -1 18 -8 24 -20 16 -533 71
-667 71 -199 0 -402 -71 -351 -122 8 -8 28 -4 71 16 82 36 178 56 281 56 83 0
507 -44 517 -54 8 -7 -234 -83 -337 -104 -187 -40 -343 -38 -488 6 l-57 18 -6
67 c-4 51 -11 73 -29 92 -31 33 -79 33 -108 2z m76 -59 c6 -18 13 -77 15 -130
l5 -98 -45 0 -46 0 5 103 c5 102 20 157 44 157 7 0 17 -15 22 -32z m3542 13
c15 -29 32 -170 25 -208 -6 -31 -8 -33 -47 -33 l-41 0 6 113 c2 61 8 120 12
130 9 23 32 22 45 -2z m-3730 -28 c56 -16 65 -22 68 -43 2 -22 -5 -29 -58 -54
-120 -56 -242 -73 -418 -57 -215 19 -403 44 -390 52 55 30 328 104 453 123 67
10 281 -3 345 -21z m4361 -7 c100 -23 275 -77 306 -95 16 -8 -45 -16 -349 -47
-225 -23 -358 -6 -476 63 -52 31 -55 62 -7 75 150 44 346 46 526 4z m-2168
-170 c55 -20 77 -43 77 -83 l0 -33 -146 0 c-145 0 -145 0 -142 -22 3 -23 3
-23 253 -28 246 -5 251 -5 308 -32 41 -19 80 -51 138 -112 90 -94 139 -122
199 -111 19 3 86 32 148 63 111 55 115 56 210 60 102 3 759 -22 767 -30 3 -3
-2 -28 -10 -56 -27 -88 -20 -87 -380 -87 l-310 0 -65 -31 c-91 -44 -186 -114
-323 -237 -64 -59 -132 -114 -150 -124 -30 -17 -84 -18 -827 -18 -921 0 -815
-13 -963 123 -124 114 -268 221 -347 257 l-65 30 -310 0 c-367 0 -351 -5 -384
112 l-9 32 61 5 c129 12 692 28 754 23 52 -5 84 -16 159 -57 185 -98 221 -94
355 45 136 140 133 139 459 145 257 5 265 6 265 25 0 19 -8 20 -155 23 -85 1
-159 7 -164 12 -15 15 14 70 48 87 29 16 111 22 461 31 28 1 67 -5 88 -12z
m-1803 -165 l0 -79 -82 -6 c-46 -3 -138 -8 -205 -11 l-123 -6 5 28 c2 16 7 54
10 85 l6 57 82 4 c45 1 133 4 195 5 l112 2 0 -79z m3359 72 c138 -7 125 3 135
-110 l6 -63 -123 5 c-67 3 -159 8 -204 11 l-83 6 0 72 c0 40 3 76 7 79 8 9
106 9 262 0z m-1707 -1055 c-2 -18 -9 -38 -14 -44 -4 -7 -51 -15 -104 -19
-108 -8 -124 -1 -124 51 l0 33 108 4 c59 1 114 4 123 5 12 2 15 -5 11 -30z"/>
<path d="M7425 10685 c-196 -42 -335 -171 -335 -310 0 -107 73 -200 205 -261
89 -41 165 -54 327 -54 103 0 130 3 143 16 34 35 4 42 -188 46 l-182 3 -76 36
c-122 59 -190 149 -176 236 16 95 102 174 240 219 l82 27 380 -2 c209 -1 400
-7 423 -12 163 -36 252 -173 211 -324 -15 -54 -99 -136 -165 -160 -40 -15 -92
-19 -284 -24 -229 -6 -235 -7 -238 -27 -3 -19 3 -22 50 -27 148 -18 413 0 504
34 76 29 154 105 177 173 67 197 -58 380 -283 416 -98 15 -741 12 -815 -5z"/>
<path d="M7817 10623 c-12 -3 -17 -12 -15 -26 3 -19 11 -23 60 -27 190 -17
223 -266 47 -354 -145 -72 -306 11 -317 164 -7 99 50 171 150 188 34 6 43 12
43 27 0 44 -110 27 -171 -27 -72 -63 -96 -150 -69 -244 43 -151 223 -230 372
-164 189 83 219 331 53 432 -44 26 -117 41 -153 31z"/>
<path d="M7728 10482 c-64 -39 -72 -126 -17 -181 76 -76 206 -37 225 67 8 44
-18 100 -56 119 -36 18 -120 16 -152 -5z m141 -59 c53 -66 -54 -146 -119 -88
-28 25 -27 79 2 99 37 26 93 21 117 -11z"/>
<path d="M6680 10131 c-11 -22 -58 -88 -106 -148 -108 -135 -128 -166 -154
-242 -28 -84 -26 -183 10 -452 37 -279 36 -272 70 -309 54 -58 136 -33 160 50
6 20 6 109 0 234 -12 269 -4 306 87 386 59 52 241 174 348 232 58 32 80 49 80
63 0 34 -29 28 -126 -28 -232 -131 -369 -237 -414 -318 -29 -53 -30 -57 -30
-191 0 -85 -4 -138 -10 -139 -5 0 -31 -4 -57 -8 -55 -9 -49 -26 -74 179 -29
241 -11 305 144 500 102 128 138 189 129 213 -11 29 -36 19 -57 -22z m-80
-1111 c-14 -25 -42 -26 -64 -1 -19 21 -45 166 -32 178 4 4 28 10 54 13 l47 5
3 -87 c1 -50 -2 -97 -8 -108z"/>
<path d="M8897 10163 c-22 -21 15 -85 135 -232 112 -137 141 -200 146 -315 2
-53 -5 -147 -15 -226 -21 -151 -11 -139 -100 -124 l-33 5 0 122 c0 67 -5 139
-10 159 -25 88 -142 190 -383 334 -131 78 -178 94 -185 62 -2 -11 23 -31 90
-68 229 -129 395 -259 420 -328 9 -27 13 -107 13 -294 l0 -256 24 -26 c44 -47
123 -30 156 33 11 23 52 295 80 542 8 76 -9 172 -44 244 -17 33 -71 111 -121
174 -50 63 -103 134 -117 158 -23 40 -41 52 -56 36z m219 -959 c19 -5 20 -9
12 -77 -13 -104 -48 -148 -88 -112 -17 15 -20 31 -20 107 l0 88 38 0 c20 0 46
-3 58 -6z"/>
<path d="M2720 8102 c0 -385 3 -412 63 -506 37 -59 127 -127 200 -153 77 -27
233 -24 307 5 112 45 190 122 230 228 19 51 20 77 20 414 l0 360 -95 0 -95 0
0 -312 c0 -179 -5 -332 -11 -358 -14 -62 -52 -108 -113 -136 -83 -38 -161 -29
-230 28 -74 61 -76 70 -76 446 l0 332 -100 0 -100 0 0 -348z"/>
<path d="M4880 7940 l0 -510 100 0 100 0 0 159 0 159 128 4 c115 3 134 6 184
31 120 59 182 167 183 317 0 103 -21 170 -71 229 -83 96 -171 121 -436 121
l-188 0 0 -510z m448 287 c30 -28 52 -84 52 -129 0 -41 -42 -109 -80 -129 -27
-15 -56 -19 -127 -19 l-93 0 0 156 0 156 109 -4 c104 -3 112 -5 139 -31z"/>
<path d="M6860 7940 l0 -510 340 0 340 0 0 95 0 95 -240 0 -240 0 0 415 0 415
-100 0 -100 0 0 -510z"/>
<path d="M8850 7940 l0 -510 100 0 100 0 0 510 0 510 -100 0 -100 0 0 -510z"/>
<path d="M10410 7940 l0 -510 100 0 100 0 0 200 0 200 190 0 190 0 0 95 0 95
-190 0 -190 0 0 120 0 120 220 0 220 0 0 95 0 95 -320 0 -320 0 0 -510z"/>
<path d="M12280 8355 l0 -95 120 0 120 0 0 -415 0 -415 100 0 100 0 0 415 0
415 125 0 125 0 0 95 0 95 -345 0 -345 0 0 -95z"/>
<path d="M3233 6667 c-38 -11 -39 2 13 -177 432 -1505 1614 -2721 3109 -3199
805 -258 1645 -299 2479 -119 l149 32 18 40 c10 22 16 42 14 44 -2 2 -61 -10
-132 -27 -161 -38 -373 -74 -568 -98 -211 -25 -784 -25 -1000 0 -948 111
-1775 463 -2505 1065 -140 116 -466 441 -579 577 -332 401 -587 828 -771 1295
-64 165 -162 461 -176 536 -8 42 -11 43 -51 31z"/>
<path d="M10170 6306 l0 -216 36 0 36 0 -4 135 c-2 74 -1 135 2 135 3 0 28
-23 55 -51 28 -28 94 -91 148 -141 l97 -90 0 216 0 216 -35 0 -34 0 -3 -136
-3 -137 -147 143 -148 142 0 -216z"/>
<path d="M4520 6300 l0 -210 35 0 35 0 0 75 0 75 48 0 c91 0 152 56 152 141 0
48 -37 101 -80 116 -19 7 -70 12 -112 12 l-78 1 0 -210z m180 130 c27 -27 26
-77 -2 -107 -16 -17 -32 -23 -65 -23 l-43 0 0 75 0 75 45 0 c32 0 51 -6 65
-20z"/>
<path d="M5110 6300 l0 -210 35 0 35 0 0 75 0 75 33 0 c29 0 36 -7 79 -75 44
-70 49 -75 83 -75 19 0 35 3 35 6 0 4 -21 40 -46 81 l-47 74 29 30 c26 27 29
37 29 96 0 62 -2 67 -33 93 -39 33 -70 40 -163 40 l-69 0 0 -210z m180 130
c12 -12 20 -33 20 -55 0 -50 -28 -75 -85 -75 l-45 0 0 75 0 75 45 0 c32 0 51
-6 65 -20z"/>
<path d="M5821 6484 c-158 -79 -156 -296 3 -370 84 -39 170 -28 236 32 49 45
70 90 70 153 0 64 -26 118 -77 160 -69 57 -150 66 -232 25z m167 -54 c53 -32
74 -75 69 -142 -4 -63 -25 -96 -81 -125 -38 -20 -105 -12 -144 16 -38 27 -67
98 -58 143 20 105 128 160 214 108z"/>
<path d="M6460 6300 l0 -210 94 0 c83 0 100 3 147 28 125 65 145 244 37 336
-47 41 -102 56 -202 56 l-76 0 0 -210z m199 132 c55 -27 76 -64 76 -132 0 -43
-5 -66 -21 -87 -28 -39 -80 -63 -136 -63 l-48 0 0 150 0 150 48 0 c26 0 62 -8
81 -18z"/>
<path d="M7132 6351 c3 -174 7 -187 72 -235 39 -30 143 -30 182 0 65 48 69 61
72 235 l3 159 -35 0 -36 0 0 -151 0 -151 -29 -29 c-22 -21 -39 -29 -66 -29
-27 0 -44 8 -66 29 l-29 29 0 151 0 151 -36 0 -35 0 3 -159z"/>
<path d="M7895 6491 c-134 -61 -165 -233 -61 -337 62 -63 153 -81 236 -48 46
18 44 15 28 49 -13 29 -14 29 -48 10 -52 -30 -138 -11 -178 39 -48 61 -32 173
30 217 41 29 97 35 138 14 35 -18 48 -12 52 24 2 19 -4 26 -32 37 -50 18 -119
16 -165 -5z"/>
<path d="M8410 6480 c0 -29 1 -30 50 -30 l50 0 0 -180 0 -180 35 0 35 0 0 180
0 180 55 0 c54 0 55 0 55 30 l0 30 -140 0 -140 0 0 -30z"/>
<path d="M9020 6300 l0 -210 35 0 35 0 0 210 0 210 -35 0 -35 0 0 -210z"/>
<path d="M9531 6484 c-158 -79 -156 -296 3 -370 84 -39 170 -28 236 32 49 45
70 90 70 153 0 64 -26 118 -77 160 -69 57 -150 66 -232 25z m167 -54 c53 -32
74 -75 69 -142 -4 -63 -25 -96 -81 -125 -38 -20 -105 -12 -144 16 -38 27 -67
98 -58 143 20 105 128 160 214 108z"/>
<path d="M10944 6500 c-37 -15 -64 -59 -64 -104 0 -52 29 -83 112 -119 63 -28
85 -56 68 -87 -22 -42 -74 -51 -138 -25 -34 15 -38 15 -49 -1 -7 -10 -13 -21
-13 -26 0 -15 63 -40 114 -45 98 -10 162 40 160 125 -1 53 -19 73 -111 121
-55 29 -69 41 -71 63 -2 20 4 31 23 44 24 16 30 16 81 2 52 -15 55 -15 65 3 5
11 7 24 4 29 -15 25 -136 38 -181 20z"/>
<path d="M7500 5325 l0 -155 69 0 c60 0 74 3 100 26 41 34 43 84 6 119 -17 15
-22 26 -15 30 21 13 32 57 20 86 -15 35 -48 49 -120 49 l-60 0 0 -155z m124
89 c19 -18 19 -20 6 -45 -8 -13 -21 -19 -45 -19 -34 0 -35 1 -35 40 0 38 2 40
29 40 16 0 37 -7 45 -16z m7 -124 c44 -24 11 -70 -50 -70 -29 0 -31 2 -31 40
0 38 2 40 31 40 17 0 39 -5 50 -10z"/>
<path d="M7979 5459 c-50 -29 -73 -73 -73 -136 0 -56 17 -90 66 -126 58 -43
193 -25 168 23 -9 16 -15 18 -36 10 -42 -17 -81 -11 -112 15 -36 30 -47 75
-28 119 24 58 86 83 138 55 16 -9 23 -8 29 2 15 25 10 37 -22 48 -47 16 -90
13 -130 -10z"/>
</g>
</svg>
